<svg xmlns="http://www.w3.org/2000/svg" version="1.1" xmlns:xlink="http://www.w3.org/1999/xlink" xmlns:svgjs="http://svgjs.dev/svgjs" viewBox="0 0 800 800" opacity="0.46"><defs><linearGradient x1="50%" y1="0%" x2="50%" y2="100%" id="uundulate-grad"><stop stop-color="hsl(205, 69%, 60%)" stop-opacity="1" offset="45%"></stop><stop stop-color="hsl(205, 69%, 80%)" stop-opacity="1" offset="100%"></stop></linearGradient></defs><g stroke-width="2" stroke="url(#uundulate-grad)" fill="none"><path d="M618.4776375940024 356.62736791474777C671.2541243602495 499.61486635265385 782.761705615603 789.7822683537393 717.6637811207252 864.8392090968873C652.5658566258472 939.8961498400354 433.04722488668153 774.2638859201422 306.00760001858885 716.9006834818574C178.96797515049616 659.5374810435728 156.11818966838587 664.61675619926 107.87358175388061 589.4958373931211C59.62897383937536 514.3749185869823 73.75288594343323 495.70872348560977 74.43348202896459 356.32027321239025C75.11407811449601 216.93182293917096 29.91061741989546 -42.522670456361766 111.14044296443183 -79.56872391833082C192.37026850896825 -116.61477738029987 358.6413957615781 87.62503079638009 464.33664464273863 178.49921659493828C570.031893523899 269.3734023934966 565.7011508277556 213.63986947684157 618.4776375940024 356.62736791474777C671.2541243602495 499.61486635265385 782.761705615603 789.7822683537393 717.6637811207252 864.8392090968873 "></path><path d="M609.738528428133 358.36230127432964C660.4039557237302 495.63029977471945 767.4512337288693 774.1910056957618 704.9572262137866 846.2456688091838C642.4632186987039 918.3003319226059 431.7253322291049 759.2933585595083 309.7672923557359 704.2246842187551C187.80925248236696 649.1560098780019 165.873458419541 654.0321140274614 119.55863482161601 581.9160319735682C73.24381122369101 509.799949919675 86.80276684358654 491.88040262235734 87.45613908569663 358.0674903600666C88.10951132780679 224.25457809777595 44.71418906099029 -24.82173556193544 122.69482158374518 -60.38594688542571C200.67545410650013 -95.95015820891604 360.2957362690056 100.1200576406967 461.76317519491977 187.3592760073127C563.2306141208338 274.5984943739286 559.0731011325361 221.09430277393983 609.738528428133 358.36230127432964C660.4039557237302 495.63029977471945 767.4512337288693 774.1910056957618 704.9572262137866 846.2456688091838 "></path><path d="M600.9994497798417 360.0972041163335C649.5538176047888 491.64570267920703 752.1407923597139 758.5997125202057 692.2507018244264 827.6520980039022C632.3606112891388 896.7044834875983 430.40347008910635 744.3228006812965 313.52701521046106 691.5486544380747C196.65056033181588 638.7745081948526 175.62875768827433 643.4474413380847 131.24371840692953 574.3361960364371C86.85867912558473 505.22495073478933 99.85267826131798 488.05205124152656 100.4788266600068 359.8146769901648C101.10497505869569 231.57730273880293 59.517791219663195 -7.1208311850872406 134.24923072063666 -41.20320037009873C208.98067022161013 -75.28556955511027 361.9501072940112 112.61505396743524 459.1897362646789 196.2193049021089C556.4293652353466 279.8235558367825 552.4450819548945 228.54870555345997 600.9994497798417 360.0972041163335C649.5538176047888 491.64570267920703 752.1407923597139 758.5997125202057 692.2507018244264 827.6520980039022 "></path><path d="M592.2603406139722 361.83210695833736C638.7036489682696 487.66110558369473 736.8303204729806 743.0084193446501 679.544146917488 809.0585271986201C622.2579733619955 875.1086350525907 429.0815774315297 729.3522428030847 317.2867075476082 678.872624657394C205.49183766368662 628.3930065117034 185.38402643942953 632.8627686487082 142.92877147466493 566.756360099306C100.47351650990032 500.6499515499039 112.90255916147123 484.2236998606959 113.50148371673885 361.5618636202629C114.10040827200646 238.9000273798299 74.32136286075803 10.580073191761016 145.80360933995001 -22.020453854771745C217.28585581914206 -54.620980901304506 363.6044478014387 125.11005029417379 456.61626681685993 205.07933379690508C549.6280858322812 285.04861729963636 545.8170322596749 236.00310833298 592.2603406139722 361.83210695833736C638.7036489682696 487.66110558369473 736.8303204729806 743.0084193446501 679.544146917488 809.0585271986201 "></path><path d="M583.5212314481028 363.5670098003411C627.8534803317502 483.6765084881822 721.5198485862471 727.4171261690942 666.8375920105497 790.4649563933385C612.1553354348523 853.5127866175831 427.75968477395304 714.3816849248724 321.04639988475526 666.1965948767133C214.33311499555742 618.0115048285543 195.13929519058473 622.2780959593315 154.61382454240032 559.1765241621748C114.08835389421591 496.07495236501836 125.95244006162454 480.39534847986533 126.52414077347089 363.309050250361C127.09584148531724 246.22275202085677 89.1249345018528 28.280977568609217 157.35798795926337 -2.837707339444762C225.59104141667393 -33.9563922474988 365.2587883088662 137.60504662091233 454.04279736904107 213.93936269170126C542.8268064292158 290.27367876249025 539.1889825644553 243.45751111250001 583.5212314481028 363.5670098003411C627.8534803317502 483.6765084881822 721.5198485862471 727.4171261690942 666.8375920105497 790.4649563933385 "></path><path d="M574.7821222822332 365.3019126423451C617.0033116952309 479.6919113926699 706.2093766995135 711.8258329935384 654.1310371036113 771.8713855880569C602.052697507709 831.9169381825754 426.4377921163765 699.4111270466606 324.8060922219023 653.5205650960329C223.17439232742822 607.6300031454051 204.89456394173993 611.6934232699549 166.29887761013572 551.5966882250437C127.70319127853156 491.4999531801327 139.00232096177785 476.5669970990348 139.54679783020293 365.0562368804592C140.09127469862807 253.54547666188364 103.92850614294764 45.981881945457474 168.91236657857672 16.34503917588222C233.8962270142058 -13.291803593693032 366.9131288162937 150.10004294765088 451.4693279212222 222.79939158649756C536.0255270261505 295.49874022534414 532.5609328692357 250.91191389202015 574.7821222822332 365.3019126423451C617.0033116952309 479.6919113926699 706.2093766995135 711.8258329935384 654.1310371036113 771.8713855880569 "></path><path d="M566.0430131163638 367.0367849667707C606.1531430587115 475.70728377957937 690.8989048127802 696.2345093004043 641.4244821966729 753.2777842651967C591.9500595805657 810.3210592299895 425.11589945879984 684.4405386508706 328.56578455904946 640.8445047977741C232.01566965929896 597.2484709446778 214.64983269289507 601.1087200630001 177.98393067787111 544.0168217703344C141.31802866284715 486.92492347766915 152.05220186193117 472.7386152006259 152.56945488693498 366.80339299297907C153.08670791193884 260.8681707853324 118.73207778404242 63.68275580472755 180.46674519789008 35.52775517363108C242.20141261173774 7.372754542534608 368.5674693237212 162.59500875681135 448.8958584734032 231.65938996371563C529.2242476230851 300.7237711706199 525.9328831740161 258.36628615396216 566.0430131163638 367.0367849667707C606.1531430587115 475.70728377957937 690.8989048127802 696.2345093004043 641.4244821966729 753.2777842651967 "></path><path d="M557.3039192092833 368.7716878087747C595.3029896809812 471.72268668406696 675.5884481848357 680.6432161248485 628.7179425485236 734.6842134599151C581.8474369122116 788.7252107949819 423.79402206001225 669.4699807726587 332.32549215498557 628.1684750170937C240.85696224995883 586.8669692615288 224.40511670283934 590.5240473736235 189.66899900439557 536.4369858332034C154.9328813059518 482.3499242927835 165.10209802087348 468.9102638197953 165.59212720245608 368.5505796230773C166.08215638403868 268.19089542635936 133.5356646839263 81.38366018157575 192.0211390759925 54.71050168895806C250.50661346805867 28.037343196340316 370.22182508993774 175.09000508354984 446.3224042843733 240.5194188585118C522.4229834788089 305.9488326334738 519.3048487375855 265.8206889334822 557.3039192092833 368.7716878087747C595.3029896809812 471.72268668406696 675.5884481848357 680.6432161248485 628.7179425485236 734.6842134599151 "></path><path d="M548.5648100434139 370.50662116835656C584.4528210444619 467.73812010613267 660.2779762981022 665.0519534668708 616.0113876415853 716.0906731722115C571.7447989850682 767.1293928775522 422.4721294024356 654.4994534120249 336.0851844921326 615.4924757539912C249.69823958182957 576.4854980959576 234.16038545399454 579.9394052018249 201.35405207213103 528.8571804136504C168.54771869026746 477.7749556254762 178.1519789210268 465.08194295654266 178.61478425918813 370.2977967707536C179.07758959734946 275.51365058496435 148.3392363250211 99.08459507600213 203.57551769530585 73.89327872186317C258.81179906559055 48.70196236772421 371.87616559736534 187.58503192786657 443.74893483655444 249.37947827088612C515.6217040757435 311.1739246139058 512.6767990423659 273.27512223058034 548.5648100434139 370.50662116835656C584.4528210444619 467.73812010613267 660.2779762981022 665.0519534668708 616.0113876415853 716.0906731722115 "></path><path d="M539.8256856187554 372.2415240103604C573.6026371491535 463.75352301062026 644.9674891525796 649.460660291315 603.3048174758578 697.4971023669299C561.642145799136 745.5335444425447 421.1502214860699 639.5288955338129 339.8448615704906 602.8164459733107C258.5395016549113 566.1039964128086 243.91563894636067 569.3547325124482 213.03908988107736 521.2773444765194C182.162540815794 473.19995644059054 191.20184456239105 461.2535915757121 191.6374260571311 372.0449834008517C192.07300755187117 282.83637522599133 163.14279270732686 116.78549945285033 215.12988105583014 93.07602523719015C267.1169694043334 69.36655102152997 373.53049084600366 200.08002825460505 441.1754501299465 258.2395071656824C508.82040941388914 316.3989860767597 506.0487340883574 280.7295250101006 539.8256856187554 372.2415240103604C573.6026371491535 463.75352301062026 644.9674891525796 649.460660291315 603.3048174758578 697.4971023669299 "></path><path d="M531.086606970464 373.9764268523643C562.7524990302122 459.76892591510784 629.6570477834242 633.8693671157591 590.5982930864975 678.903531561648C551.5395383895708 723.9376960075369 419.82835934607147 624.5583376556009 343.60458442521576 590.1404161926301C267.38080950436023 555.7224947296593 253.670938215094 558.7700598230716 224.72417346639088 513.6975085393883C195.7774087176877 468.624957255705 204.25175598012243 457.42524019488144 204.66011363144128 373.7921700309498C205.06847128276007 290.1590998670182 177.94639486599976 134.48640382969853 226.68429019272162 112.25877175251713C275.4221855194434 90.03113967533568 375.1848618710094 212.57502458134365 438.60201119970566 267.0995360604786C502.0191605284019 321.62404753961357 499.4207149107158 288.1839277896206 531.086606970464 373.9764268523643C562.7524990302122 459.76892591510784 629.6570477834242 633.8693671157591 590.5982930864975 678.903531561648 "></path><path d="M522.3474978045945 375.71132969436815C551.9023303936929 455.78432881959543 614.3465758966908 618.2780739402035 577.8917381795592 660.3099607563664C541.4369004624275 702.3418475725293 418.5064666884948 609.587779777389 347.3642767623629 577.4643864119496C276.222086836231 545.3409930465102 263.4262069662492 548.185387133695 236.40922653412628 506.11767260225724C209.39224610200336 464.04995807081946 217.30163688027574 453.59688881405077 217.68277068817332 375.53935666104803C218.0639044960709 297.48182450804507 192.7499665070946 152.1873082065468 238.23866881203497 131.44151826784412C283.72737111697535 110.69572832914145 376.8392023784369 225.0700209080822 436.0285417518867 275.9595649552748C495.2178811253366 326.84910900246746 492.7926652154963 295.63833056914063 522.3474978045945 375.71132969436815C551.9023303936929 455.78432881959543 614.3465758966908 618.2780739402035 577.8917381795592 660.3099607563664 "></path><path d="M513.608373379936 377.446232536372C541.0521464983844 451.79973172408313 599.0360887511681 602.6867807646476 565.1851680138317 641.7163899510847C531.3342472764953 680.7459991375216 417.1845587721291 594.6172218991771 351.1239538407209 564.788356631269C285.0633489093127 534.9594913633609 273.18146045861533 537.6007144443183 248.0942643430726 498.5378366651262C223.00706822752989 459.47495888593403 230.35150252164 449.7685374332202 230.7054124861163 377.28654329114613C231.05932245059262 304.80454914907205 207.5535228894003 169.888212583395 249.79303217255926 150.6242647831711C292.03254145571816 131.3603169829472 378.4935276270753 237.56501723482074 433.45505704527875 284.81959385007104C488.4165864634822 332.07417046532134 486.1646002614875 303.0927333486608 513.608373379936 377.446232536372C541.0521464983844 451.79973172408313 599.0360887511681 602.6867807646476 565.1851680138317 641.7163899510847 "></path><path d="M504.8692794728556 379.1811201195867C530.2019931206542 447.81511936978154 583.7256321232237 587.0954723303028 552.4786283656824 623.1228038870138C521.231624608141 659.1501354437248 415.8626813733415 579.646648762176 354.883661436657 552.1123115917994C293.9046414999725 524.5779744214228 282.9367444685596 527.0160264961526 259.77933266959707 490.95798546920605C236.62192087063454 454.8999444422593 243.40139868058236 445.9401707936006 243.7280848016374 379.03371466245517C244.05477092269246 312.12725853130985 222.3571097892842 187.58910170145418 261.3474260506617 169.80699603970902C300.3377423120391 152.02489037796386 380.14788339329186 250.05999830277023 430.88160285624895 293.6796074860782C481.6153223192059 337.29921666938617 479.5365658250571 310.5471208693918 504.8692794728556 379.1811201195867C530.2019931206542 447.81511936978154 583.7256321232237 587.0954723303028 552.4786283656824 623.1228038870138 "></path><path d="M496.130155048197 380.9160382203796C519.3518092253457 443.8305375330583 568.4151449777012 571.504194413536 539.7720581999549 604.529248340521C511.1289714222087 637.5543022675063 414.5407734569758 564.6761061427533 358.64333851501505 539.4362970699079C302.74590357305425 514.1964879970626 292.69199796092573 516.431369065565 271.4643704785434 483.37816479086393C250.23674299616113 450.32496051616295 256.45126432194655 442.1118346715589 256.7507265995804 380.78091655134244C257.05018887721417 319.4499984311259 237.16066617158992 205.29002133709145 272.901789411186 188.98975781382507C308.64291265078197 172.68949429055868 381.8022086419303 262.55500988829783 428.3081181496409 302.5396516396635C474.8140276573515 342.5242933910291 472.9085008710483 318.00153890770093 496.130155048197 380.9160382203796C519.3518092253457 443.8305375330583 568.4151449777012 571.504194413536 539.7720581999549 604.529248340521 "></path><path d="M487.3910763999056 382.65095632117254C508.5016711064045 439.84595569633495 553.1047036085458 555.9129164967692 527.0655338105947 585.9356927940285C501.0263640126436 615.9584690912877 413.21891131697726 549.7055635233303 362.4030613697402 526.7602825480164C311.5872114225032 503.8150015727026 302.447297229659 505.8467116349775 283.1494540638569 475.7983441125218C263.85161089805484 445.74997659006635 269.501175739678 438.2834985495174 269.77341417389056 382.5281184402296C270.04565260810307 326.7727383309418 251.96426833026288 222.9909409727287 284.4561985480774 208.1725195879411C316.94812876589197 193.3540982031535 383.4565796669359 275.05002147382544 425.73467921940016 311.3996957932488C468.0127787718643 347.74937011267207 466.28048169340695 325.4559569460101 487.3910763999056 382.65095632117254C508.5016711064045 439.84595569633495 553.1047036085458 555.9129164967692 527.0655338105947 585.9356927940285 "></path><path d="M478.6519672340362 384.3858591631764C497.65150246988514 435.86135860082254 537.7942317218124 540.3216233212133 514.3589789036564 567.3421219887466C490.92372608550033 594.36262065628 411.89701865940066 534.7350056451185 366.1627537068873 514.0842527673359C320.4284887543739 493.43349988955345 312.2025659808142 495.2620389456008 294.8345071315923 468.21850817539075C277.46644828237044 441.1749774051808 282.5510566398313 434.4551471686867 282.7960712306226 384.2753050703277C283.04108582141384 334.09546297196874 266.76783997135766 240.69184534957697 296.01057716739075 227.3552661032681C325.2533143634239 214.01868685695922 385.1109201743634 287.545017800564 423.1612097715812 320.25972468804497C461.21149936879897 352.97443157552595 459.65243199818724 332.91035972553016 478.6519672340362 384.3858591631764C497.65150246988514 435.86135860082254 537.7942317218124 540.3216233212133 514.3589789036564 567.3421219887466 "></path><path d="M469.91285043877224 386.1207620051802C486.80132620397126 431.8767615053101 522.4837522056844 524.7303301456575 501.65241636732344 548.748551183465C480.8210805289625 572.7667722212723 410.5751183724295 519.7644477669064 369.9224384146398 501.40822298665535C329.2697584568502 483.0519982064043 321.95782710257487 484.6773662562241 306.5195525699332 460.6386722382597C291.08127803729155 436.59997822029527 295.60092991059 430.62679578785605 295.81872065796006 386.02249170042586C296.03651140533015 341.41818761299567 281.57140398305796 258.39274972642517 307.5649481573096 246.53801261859508C333.55849233156124 234.683275510765 386.76525305239636 300.0400141273025 420.5877326943678 329.1197535828412C454.4102123363391 358.19949303837984 453.0243746735732 340.3647625050503 469.91285043877224 386.1207620051802C486.80132620397126 431.8767615053101 522.4837522056844 524.7303301456575 501.65241636732344 548.748551183465 "></path><path d="M461.1737412729027 387.85568010597314C475.9511575674519 427.8921796685868 507.1732803189509 509.1390522288908 488.945861460385 530.1549956369722C470.7184426018192 551.1709390450537 409.2532257148529 504.79390514748354 373.68213075178693 488.73220846476386C338.111035788721 472.6705117820442 331.71309585373007 474.0927088256366 318.2046056376686 453.0588515599177C304.69611542160715 432.0249942941988 308.65081081074334 426.79845966581445 308.8413777146921 387.7696935893131C309.0319446186409 348.7409275128116 296.37497562415274 276.0936693620624 319.1193267766229 265.7207743927111C341.8636779290931 255.34787942335976 388.4195935598239 312.53502571283013 418.0142632465488 337.97979773642646C447.60893293327376 363.4245697600228 446.3963249783536 347.8191805433594 461.1737412729027 387.85568010597314C475.9511575674519 427.8921796685868 507.1732803189509 509.1390522288908 488.945861460385 530.1549956369722 "></path><path d="M452.4346321070333 389.5905676891879C465.10098893093254 423.9075673142853 491.8628084322173 493.5477437945459 476.2393065534467 511.5614095729014C460.615804674676 529.5750753512569 407.9313330572762 489.82333201048255 377.441823088934 476.05616342529424C346.9523131205917 462.28899484010594 341.46836460488527 463.5080208774708 329.889658705404 445.47900036399756C318.31095280592274 427.4499798505242 321.70069171089665 422.97009302619483 321.86403477142414 389.5168649606221C322.0273778319517 356.06363689504946 311.1785472652476 293.7945584801216 330.6737053959363 284.90350564924904C350.16886352662505 276.01245281837646 390.0739340672514 325.0300067807797 415.44079379872994 346.83981137243364C440.8076535302084 368.6496159640876 439.768275283134 355.27356806409045 452.4346321070333 389.5905676891879C465.10098893093254 423.9075673142853 491.8628084322173 493.5477437945459 476.2393065534467 511.5614095729014 "></path><path d="M443.6955381999528 391.32547053119174C454.25083555320225 419.92297021877295 476.5523518042729 477.95645061899006 463.53276690529736 492.9678387676197C450.5131820063218 507.97922691624933 406.6094556584886 474.8527741322706 381.20153068487014 463.3801336446137C355.7936057112516 451.9074931569568 351.22364861482953 452.9233481880942 341.5747270319285 437.8991644268664C331.9258054490274 422.87498066563865 334.75058786983897 419.14174164536416 334.88670708694525 391.26405159072027C335.02282630405153 363.3863615360764 325.9821341651314 311.4954628569698 342.2280992740387 304.086252164576C358.474064382946 296.6770414721822 391.72828983346795 337.52500310751816 412.8673396097001 355.69984026722983C434.00638938593215 373.8746774269415 433.1402408467035 362.7279708436105 443.6955381999528 391.32547053119174C454.25083555320225 419.92297021877295 476.5523518042729 477.95645061899006 463.53276690529736 492.9678387676197 "></path><path d="M434.95642140468885 393.06036574380107C443.40065928728836 415.938365493866 461.2418722881449 462.3651498140397 450.82620436896445 474.37426033294344C440.410536449784 486.3833708518471 405.2875553715175 459.88220862466414 384.96121539262265 450.7040962345386C364.63487541372785 441.5259838444131 360.9789097365902 442.338667869323 353.25977247026935 430.3193208603408C345.5406352039485 418.2999738513586 347.80046114059775 415.31338263513896 347.90935651428276 393.0112305914239C348.0182518879678 370.70907854770877 340.7856981768317 329.19635960442355 353.7824702639575 323.2689910505085C366.7792423510833 317.3416224965934 393.3826227115009 350.01999180486223 410.2938625324866 364.55986153263154C427.2051023534723 379.09973126040086 426.51218352208934 370.1823659937361 434.95642140468885 393.06036574380107C443.40065928728836 415.938365493866 461.2418722881449 462.3651498140397 450.82620436896445 474.37426033294344 "></path><path d="M426.2173198682139 394.79530673277753C432.55049828016354 411.95380654532624 445.9314080308059 446.77389478545655 438.1196570914206 455.7807276746343C430.30790615203523 464.78756056381206 403.9656703433354 444.91168889342487 388.7209153591643 438.0281046008307C373.4761603749931 431.14452030823657 370.73418611713987 431.754033326919 364.9448331673993 422.7395230701824C359.15548021765863 413.7250128134457 360.8503496701456 411.485069401281 360.93202120040934 394.75845536849465C361.0136927306731 378.03184133570835 355.589277447321 346.8973021282444 365.3368565126654 342.4517757128081C375.0844355780098 338.0062492973718 395.036970848323 362.51502627857343 407.72040071406224 373.4199285744004C420.4038305798015 384.3248308702274 419.8841414562643 377.6368069202288 426.2173198682139 394.79530673277753C432.55049828016354 411.95380654532624 445.9314080308059 446.77389478545655 438.1196570914206 455.7807276746343 "></path><path d="M417.47820688764716 396.53019050129507C421.7003258289469 407.96919037632756 430.6209323293752 431.1825825364144 425.41309836978496 437.18713779586625C420.20526441019473 443.19169305531807 402.64377387106146 429.9411119417266 392.48060388161406 425.35205574666384C382.31743389216666 420.76299955160107 380.4894510535978 421.169341564056 376.6298824204374 415.1596680595649C372.77031378727696 409.1499945550738 373.90022675560164 407.656698946964 373.9546744424441 396.5056229251065C374.00912212928665 385.3545469032489 370.3928452737186 364.5981874316063 376.8912313172815 361.63450315464877C383.3896173608444 358.67081887769126 396.6913075410532 375.01000353182565 405.14692745154605 382.2799383957103C413.6025473620389 389.54987325959496 413.2560879463474 385.0911906262626 417.47820688764716 396.53019050129507C421.7003258289469 407.96919037632756 430.6209323293752 431.1825825364144 425.41309836978496 437.18713779586625 "></path><path d="M408.7391120268924 398.2650952506475C410.8501714975423 403.9845951881638 415.3104747477564 415.5912912682072 412.7065577679613 418.5935688979331C410.10264078816624 421.59584652765903 401.3218955185996 414.9705559708633 396.2403105238759 412.6760278733319C391.15872552915215 410.38149977580053 390.24473410986775 410.584670782028 388.31494979328755 407.5798340297825C386.38516547670736 404.5749972775369 386.95012196086964 403.82834947348204 386.9773458042909 398.2528114625532C387.0045696477122 392.67727345162444 385.1964312199281 382.29909371580317 388.4456242417096 380.8172515773244C391.6948172634911 379.3354094388456 398.34566235359546 387.5050017659128 402.5734723088419 391.1399691978551C406.8012822640883 394.7749366297975 406.62805255624255 392.5455953131313 408.7391120268924 398.2650952506475C410.8501714975423 403.9845951881638 415.3104747477564 415.5912912682072 412.7065577679613 418.5935688979331 "></path></g></svg>