<?xml version="1.0" encoding="utf-8"?>
<!-- Generator: Adobe Illustrator 26.3.1, SVG Export Plug-In . SVG Version: 6.00 Build 0)  -->
<svg version="1.1" id="图层_1" xmlns="http://www.w3.org/2000/svg" xmlns:xlink="http://www.w3.org/1999/xlink" x="0px" y="0px"
	 viewBox="0 0 382.7 382.7" style="enable-background:new 0 0 382.7 382.7;" xml:space="preserve">
<style type="text/css">
	.st0{fill:#70808D;stroke:#FFFFFF;stroke-miterlimit:10;}
	.st1{fill:none;stroke:#E3E4E4;stroke-width:14;stroke-miterlimit:10;}
	.st2{fill:#E4E4E5;}
</style>
<path class="st0" d="M236.6,343.9H91.7c-10,0-18.1-8.1-18.1-18.1V62c0-10,8.1-18.1,18.1-18.1h193.5c10,0,18.1,8.1,18.1,18.1v219.2"
	/>
<line class="st1" x1="147.4" y1="92.1" x2="277.6" y2="92.1"/>
<line class="st1" x1="100.8" y1="130.2" x2="277.6" y2="130.2"/>
<line class="st1" x1="100.8" y1="168.3" x2="277.6" y2="168.3"/>
<line class="st1" x1="100.8" y1="206.4" x2="277.6" y2="206.4"/>
<line class="st1" x1="100.8" y1="244.5" x2="277.6" y2="244.5"/>
<path class="st2" d="M237.2,299.4c0-10,8.1-18.1,18.1-18.1l48.1-0.1l-66.8,62.7L237.2,299.4z"/>
</svg>
