<?xml version="1.0" encoding="utf-8"?>
<!-- Generator: Adobe Illustrator 26.3.1, SVG Export Plug-In . SVG Version: 6.00 Build 0)  -->
<svg version="1.1" id="图层_1" xmlns="http://www.w3.org/2000/svg" xmlns:xlink="http://www.w3.org/1999/xlink" x="0px" y="0px"
	 viewBox="0 0 382.7 382.7" style="enable-background:new 0 0 382.7 382.7;" xml:space="preserve">
<style type="text/css">
	.st0{fill:#F8E491;}
	.st1{fill:#FBFBDE;}
</style>
<path class="st0" d="M326.6,313.4H53c-10.9,0-19.8-8.9-19.8-19.8V108h293.4c10.9,0,19.8,8.9,19.8,19.8v165.8
	C346.4,304.5,337.5,313.4,326.6,313.4z"/>
<path class="st0" d="M239.9,111.1"/>
<path class="st0" d="M79,64.6h131.2"/>
<path class="st0" d="M33.2,223.9V111.1"/>
<path class="st0" d="M312.1,223.9"/>
<path class="st0" d="M33.2,84.4v26.7L230,108V84.4c0-10.9-8.9-19.8-19.8-19.8H60.7H53C42.1,64.6,33.2,73.5,33.2,84.4"/>
<path class="st1" d="M43.7,87.9V108l252.1,0l-0.3-20.2c0.3-7.9-4.8-12.3-13.6-12.3H82.2H61.6C47.8,75.5,43.7,81.1,43.7,87.9"/>
</svg>
